<svg width="626" height="316" viewBox="0 0 626 316" fill="none" xmlns="http://www.w3.org/2000/svg">
<path d="M0 104.256C0.00067329 112.431 0 178.953 0 178.953C0 178.953 0.743258 188.058 8.73327 188.058C16.7233 188.058 16.7233 178.953 16.7233 178.953V113.36C16.7233 113.36 16.5947 108.727 18.5814 108.529C20.6492 108.324 20.6254 113.36 20.6254 113.36V302.705C20.6254 302.705 22.1119 314.226 33.8182 314.226C45.5245 314.226 47.5684 302.705 47.5684 302.705V222.248C47.5684 222.248 47.4338 216.907 49.6124 217.045C51.7423 217.18 51.2847 222.248 51.2847 222.248V302.705C51.2847 302.705 52.957 314.226 65.035 314.226C77.1129 314.226 78.7852 302.705 78.7852 302.705V113.36C78.7852 113.36 78.4655 108.663 80.4575 108.529C82.5015 108.392 82.5015 113.36 82.5015 113.36V178.953C82.5015 178.953 83.0589 188.058 90.8631 188.058C98.6673 188.058 98.6673 178.953 98.6673 178.953C98.6673 178.953 98.7912 113.36 98.6673 104.256C98.5434 95.1507 95.811 90.9064 90.1199 84.9309C83.8947 78.3946 74.5115 75.2686 69.1229 75.2686C63.7343 75.2685 35.6763 75.2688 29.9161 75.2686C24.1558 75.2683 15.8761 78.7512 9.66234 84.9309C3.67975 90.8807 -0.000673105 96.0797 0 104.256Z" fill="#1DB954"/>
<ellipse cx="48.944" cy="43.3086" rx="26.9431" ry="27.1289" fill="#1DB954"/>
<path d="M20.2448 42.7536C20.3505 38.9125 22.1029 33.0912 22.1029 33.0912H20.2448H17.8292C17.8292 33.0912 17.2186 28.1612 17.8292 25.1012C18.9129 19.67 25.6334 13.0233 25.6334 13.0233H27.3057C27.3057 13.0233 33.3978 9.24713 37.7113 7.82051C42.6612 6.18342 45.6935 5.60078 50.9041 5.77656C55.1855 5.92099 57.2721 6.38929 61.3097 7.82051C65.3491 9.25235 71.3437 13.0233 71.3437 13.0233H73.016C73.016 13.0233 78.9044 19.8005 79.8912 25.1012C80.4622 28.1688 79.8912 33.0912 79.8912 33.0912H77.8472H75.9891C75.9891 33.0912 77.7415 38.9125 77.8472 42.7536C77.9705 47.2374 75.9891 54.0882 75.9891 54.0882C75.9891 54.0882 80.3036 54.3076 81.5635 52.4159C82.2269 51.4198 82.3067 49.4429 82.3067 49.4429C82.3067 49.4429 83.8549 49.9849 84.5365 49.4429C85.1841 48.9279 85.0939 47.3989 85.0939 47.3989V40.5238C85.0939 40.5238 85.4601 38.3523 84.5365 37.7366C83.812 37.2536 82.3067 37.7366 82.3067 37.7366V34.9494C82.3067 34.9494 82.5907 27.8187 81.5635 23.4289C80.3345 18.177 74.6884 11.9084 74.6884 11.9084C74.6884 11.9084 74.7063 10.1015 73.9451 9.67866C70.6004 7.82051 70.8456 7.3447 65.9551 5.21691C61.0646 3.08912 57.3578 2.27076 50.9041 2.06027C45.2319 1.87527 41.9851 2.06035 36.7823 3.40942C31.5795 4.7585 28.4206 6.51732 24.1469 9.67866C23.4468 10.1965 24.1469 11.9084 24.1469 11.9084C24.1469 11.9084 17.2395 18.0599 15.9711 23.4289C14.9333 27.8216 15.9711 34.9494 15.9711 34.9494V37.7366C15.9711 37.7366 14.6148 37.3313 13.9271 37.7366C13.1144 38.2155 12.998 39.9664 12.998 39.9664V47.3989C12.998 47.3989 13.1759 48.9907 13.9271 49.4429C14.611 49.8546 15.9711 49.4429 15.9711 49.4429C15.9711 49.4429 15.9176 52.0312 16.9001 53.1592C18.2558 54.7155 22.1029 54.0882 22.1029 54.0882C22.1029 54.0882 20.1215 47.2374 20.2448 42.7536Z" fill="#1DB954"/>
<path d="M131 104.256C131.001 112.431 131 178.953 131 178.953C131 178.953 131.743 188.058 139.733 188.058C147.723 188.058 147.723 178.953 147.723 178.953V113.36C147.723 113.36 147.595 108.727 149.581 108.529C151.649 108.324 151.625 113.36 151.625 113.36V302.705C151.625 302.705 153.112 314.226 164.818 314.226C176.524 314.226 178.568 302.705 178.568 302.705V222.248C178.568 222.248 178.434 216.907 180.612 217.045C182.742 217.18 182.285 222.248 182.285 222.248V302.705C182.285 302.705 183.957 314.226 196.035 314.226C208.113 314.226 209.785 302.705 209.785 302.705V113.36C209.785 113.36 209.465 108.663 211.458 108.529C213.502 108.392 213.501 113.36 213.501 113.36V178.953C213.501 178.953 214.059 188.058 221.863 188.058C229.667 188.058 229.667 178.953 229.667 178.953C229.667 178.953 229.791 113.36 229.667 104.256C229.543 95.1507 226.811 90.9064 221.12 84.9309C214.895 78.3946 205.511 75.2686 200.123 75.2686C194.734 75.2685 166.676 75.2688 160.916 75.2686C155.156 75.2683 146.876 78.7512 140.662 84.9309C134.68 90.8807 130.999 96.0797 131 104.256Z" fill="#1DB954"/>
<ellipse cx="180.944" cy="43.3086" rx="26.9431" ry="27.1289" fill="#1DB954"/>
<path d="M152.245 42.7536C152.35 38.9125 154.103 33.0912 154.103 33.0912H152.245H149.829C149.829 33.0912 149.219 28.1612 149.829 25.1012C150.913 19.67 157.633 13.0233 157.633 13.0233H159.306C159.306 13.0233 165.398 9.24713 169.711 7.82051C174.661 6.18342 177.694 5.60078 182.904 5.77656C187.185 5.92099 189.272 6.38929 193.31 7.82051C197.349 9.25235 203.344 13.0233 203.344 13.0233H205.016C205.016 13.0233 210.904 19.8005 211.891 25.1012C212.462 28.1688 211.891 33.0912 211.891 33.0912H209.847H207.989C207.989 33.0912 209.742 38.9125 209.847 42.7536C209.971 47.2374 207.989 54.0882 207.989 54.0882C207.989 54.0882 212.304 54.3076 213.563 52.4159C214.227 51.4198 214.307 49.4429 214.307 49.4429C214.307 49.4429 215.855 49.9849 216.537 49.4429C217.184 48.9279 217.094 47.3989 217.094 47.3989V40.5238C217.094 40.5238 217.46 38.3523 216.537 37.7366C215.812 37.2536 214.307 37.7366 214.307 37.7366V34.9494C214.307 34.9494 214.591 27.8187 213.563 23.4289C212.335 18.177 206.688 11.9084 206.688 11.9084C206.688 11.9084 206.706 10.1015 205.945 9.67866C202.6 7.82051 202.846 7.3447 197.955 5.21691C193.065 3.08912 189.358 2.27076 182.904 2.06027C177.232 1.87527 173.985 2.06035 168.782 3.40942C163.579 4.7585 160.421 6.51732 156.147 9.67866C155.447 10.1965 156.147 11.9084 156.147 11.9084C156.147 11.9084 149.24 18.0599 147.971 23.4289C146.933 27.8216 147.971 34.9494 147.971 34.9494V37.7366C147.971 37.7366 146.615 37.3313 145.927 37.7366C145.114 38.2155 144.998 39.9664 144.998 39.9664V47.3989C144.998 47.3989 145.176 48.9907 145.927 49.4429C146.611 49.8546 147.971 49.4429 147.971 49.4429C147.971 49.4429 147.918 52.0312 148.9 53.1592C150.256 54.7155 154.103 54.0882 154.103 54.0882C154.103 54.0882 152.121 47.2374 152.245 42.7536Z" fill="#1DB954"/>
<path d="M263 104.256C263.001 112.431 263 178.953 263 178.953C263 178.953 263.743 188.058 271.733 188.058C279.723 188.058 279.723 178.953 279.723 178.953V113.36C279.723 113.36 279.595 108.727 281.581 108.529C283.649 108.324 283.625 113.36 283.625 113.36V302.705C283.625 302.705 285.112 314.226 296.818 314.226C308.524 314.226 310.568 302.705 310.568 302.705V222.248C310.568 222.248 310.434 216.907 312.612 217.045C314.742 217.18 314.285 222.248 314.285 222.248V302.705C314.285 302.705 315.957 314.226 328.035 314.226C340.113 314.226 341.785 302.705 341.785 302.705V113.36C341.785 113.36 341.465 108.663 343.458 108.529C345.502 108.392 345.501 113.36 345.501 113.36V178.953C345.501 178.953 346.059 188.058 353.863 188.058C361.667 188.058 361.667 178.953 361.667 178.953C361.667 178.953 361.791 113.36 361.667 104.256C361.543 95.1507 358.811 90.9064 353.12 84.9309C346.895 78.3946 337.511 75.2686 332.123 75.2686C326.734 75.2685 298.676 75.2688 292.916 75.2686C287.156 75.2683 278.876 78.7512 272.662 84.9309C266.68 90.8807 262.999 96.0797 263 104.256Z" stroke="#1DB954" stroke-width="3"/>
<path d="M337.387 43.3086C337.387 57.4727 325.986 68.9374 311.944 68.9374C297.902 68.9374 286.501 57.4727 286.501 43.3086C286.501 29.1444 297.902 17.6797 311.944 17.6797C325.986 17.6797 337.387 29.1444 337.387 43.3086Z" stroke="#1DB954" stroke-width="3"/>
<path d="M283.245 42.7536C283.35 38.9125 285.103 33.0912 285.103 33.0912H283.245H280.829C280.829 33.0912 280.219 28.1612 280.829 25.1012C281.913 19.67 288.633 13.0233 288.633 13.0233H290.306C290.306 13.0233 296.398 9.24713 300.711 7.82051C305.661 6.18342 308.694 5.60078 313.904 5.77656C318.185 5.92099 320.272 6.38929 324.31 7.82051C328.349 9.25235 334.344 13.0233 334.344 13.0233H336.016C336.016 13.0233 341.904 19.8005 342.891 25.1012C343.462 28.1688 342.891 33.0912 342.891 33.0912H340.847H338.989C338.989 33.0912 340.742 38.9125 340.847 42.7536C340.971 47.2374 338.989 54.0882 338.989 54.0882C338.989 54.0882 343.304 54.3076 344.563 52.4159C345.227 51.4198 345.307 49.4429 345.307 49.4429C345.307 49.4429 346.855 49.9849 347.537 49.4429C348.184 48.9279 348.094 47.3989 348.094 47.3989V40.5238C348.094 40.5238 348.46 38.3523 347.537 37.7366C346.812 37.2536 345.307 37.7366 345.307 37.7366V34.9494C345.307 34.9494 345.591 27.8187 344.563 23.4289C343.335 18.177 337.688 11.9084 337.688 11.9084C337.688 11.9084 337.706 10.1015 336.945 9.67866C333.6 7.82051 333.846 7.3447 328.955 5.21691C324.065 3.08912 320.358 2.27076 313.904 2.06027C308.232 1.87527 304.985 2.06035 299.782 3.40942C294.579 4.7585 291.421 6.51732 287.147 9.67866C286.447 10.1965 287.147 11.9084 287.147 11.9084C287.147 11.9084 280.24 18.0599 278.971 23.4289C277.933 27.8216 278.971 34.9494 278.971 34.9494V37.7366C278.971 37.7366 277.615 37.3313 276.927 37.7366C276.114 38.2155 275.998 39.9664 275.998 39.9664V47.3989C275.998 47.3989 276.176 48.9907 276.927 49.4429C277.611 49.8546 278.971 49.4429 278.971 49.4429C278.971 49.4429 278.918 52.0312 279.9 53.1592C281.256 54.7155 285.103 54.0882 285.103 54.0882C285.103 54.0882 283.121 47.2374 283.245 42.7536Z" stroke="#1DB954" stroke-width="3"/>
<path d="M394 104.256C394.001 112.431 394 178.953 394 178.953C394 178.953 394.743 188.058 402.733 188.058C410.723 188.058 410.723 178.953 410.723 178.953V113.36C410.723 113.36 410.595 108.727 412.581 108.529C414.649 108.324 414.625 113.36 414.625 113.36V302.705C414.625 302.705 416.112 314.226 427.818 314.226C439.524 314.226 441.568 302.705 441.568 302.705V222.248C441.568 222.248 441.434 216.907 443.612 217.045C445.742 217.18 445.285 222.248 445.285 222.248V302.705C445.285 302.705 446.957 314.226 459.035 314.226C471.113 314.226 472.785 302.705 472.785 302.705V113.36C472.785 113.36 472.465 108.663 474.458 108.529C476.502 108.392 476.501 113.36 476.501 113.36V178.953C476.501 178.953 477.059 188.058 484.863 188.058C492.667 188.058 492.667 178.953 492.667 178.953C492.667 178.953 492.791 113.36 492.667 104.256C492.543 95.1507 489.811 90.9064 484.12 84.9309C477.895 78.3946 468.511 75.2686 463.123 75.2686C457.734 75.2685 429.676 75.2688 423.916 75.2686C418.156 75.2683 409.876 78.7512 403.662 84.9309C397.68 90.8807 393.999 96.0797 394 104.256Z" stroke="#1DB954" stroke-width="3"/>
<path d="M468.387 43.3086C468.387 57.4727 456.986 68.9374 442.944 68.9374C428.902 68.9374 417.501 57.4727 417.501 43.3086C417.501 29.1444 428.902 17.6797 442.944 17.6797C456.986 17.6797 468.387 29.1444 468.387 43.3086Z" stroke="#1DB954" stroke-width="3"/>
<path d="M414.245 42.7536C414.35 38.9125 416.103 33.0912 416.103 33.0912H414.245H411.829C411.829 33.0912 411.219 28.1612 411.829 25.1012C412.913 19.67 419.633 13.0233 419.633 13.0233H421.306C421.306 13.0233 427.398 9.24713 431.711 7.82051C436.661 6.18342 439.694 5.60078 444.904 5.77656C449.185 5.92099 451.272 6.38929 455.31 7.82051C459.349 9.25235 465.344 13.0233 465.344 13.0233H467.016C467.016 13.0233 472.904 19.8005 473.891 25.1012C474.462 28.1688 473.891 33.0912 473.891 33.0912H471.847H469.989C469.989 33.0912 471.742 38.9125 471.847 42.7536C471.971 47.2374 469.989 54.0882 469.989 54.0882C469.989 54.0882 474.304 54.3076 475.563 52.4159C476.227 51.4198 476.307 49.4429 476.307 49.4429C476.307 49.4429 477.855 49.9849 478.537 49.4429C479.184 48.9279 479.094 47.3989 479.094 47.3989V40.5238C479.094 40.5238 479.46 38.3523 478.537 37.7366C477.812 37.2536 476.307 37.7366 476.307 37.7366V34.9494C476.307 34.9494 476.591 27.8187 475.563 23.4289C474.335 18.177 468.688 11.9084 468.688 11.9084C468.688 11.9084 468.706 10.1015 467.945 9.67866C464.6 7.82051 464.846 7.3447 459.955 5.21691C455.065 3.08912 451.358 2.27076 444.904 2.06027C439.232 1.87527 435.985 2.06035 430.782 3.40942C425.579 4.7585 422.421 6.51732 418.147 9.67866C417.447 10.1965 418.147 11.9084 418.147 11.9084C418.147 11.9084 411.24 18.0599 409.971 23.4289C408.933 27.8216 409.971 34.9494 409.971 34.9494V37.7366C409.971 37.7366 408.615 37.3313 407.927 37.7366C407.114 38.2155 406.998 39.9664 406.998 39.9664V47.3989C406.998 47.3989 407.176 48.9907 407.927 49.4429C408.611 49.8546 409.971 49.4429 409.971 49.4429C409.971 49.4429 409.918 52.0312 410.9 53.1592C412.256 54.7155 416.103 54.0882 416.103 54.0882C416.103 54.0882 414.121 47.2374 414.245 42.7536Z" stroke="#1DB954" stroke-width="3"/>
<path d="M525 104.256C525.001 112.431 525 178.953 525 178.953C525 178.953 525.743 188.058 533.733 188.058C541.723 188.058 541.723 178.953 541.723 178.953V113.36C541.723 113.36 541.595 108.727 543.581 108.529C545.649 108.324 545.625 113.36 545.625 113.36V302.705C545.625 302.705 547.112 314.226 558.818 314.226C570.524 314.226 572.568 302.705 572.568 302.705V222.248C572.568 222.248 572.434 216.907 574.612 217.045C576.742 217.18 576.285 222.248 576.285 222.248V302.705C576.285 302.705 577.957 314.226 590.035 314.226C602.113 314.226 603.785 302.705 603.785 302.705V113.36C603.785 113.36 603.465 108.663 605.458 108.529C607.502 108.392 607.501 113.36 607.501 113.36V178.953C607.501 178.953 608.059 188.058 615.863 188.058C623.667 188.058 623.667 178.953 623.667 178.953C623.667 178.953 623.791 113.36 623.667 104.256C623.543 95.1507 620.811 90.9064 615.12 84.9309C608.895 78.3946 599.511 75.2686 594.123 75.2686C588.734 75.2685 560.676 75.2688 554.916 75.2686C549.156 75.2683 540.876 78.7512 534.662 84.9309C528.68 90.8807 524.999 96.0797 525 104.256Z" stroke="#1DB954" stroke-width="3"/>
<path d="M600.387 43.3086C600.387 57.4727 588.986 68.9374 574.944 68.9374C560.902 68.9374 549.501 57.4727 549.501 43.3086C549.501 29.1444 560.902 17.6797 574.944 17.6797C588.986 17.6797 600.387 29.1444 600.387 43.3086Z" stroke="#1DB954" stroke-width="3"/>
<path d="M546.245 42.7536C546.35 38.9125 548.103 33.0912 548.103 33.0912H546.245H543.829C543.829 33.0912 543.219 28.1612 543.829 25.1012C544.913 19.67 551.633 13.0233 551.633 13.0233H553.306C553.306 13.0233 559.398 9.24713 563.711 7.82051C568.661 6.18342 571.694 5.60078 576.904 5.77656C581.185 5.92099 583.272 6.38929 587.31 7.82051C591.349 9.25235 597.344 13.0233 597.344 13.0233H599.016C599.016 13.0233 604.904 19.8005 605.891 25.1012C606.462 28.1688 605.891 33.0912 605.891 33.0912H603.847H601.989C601.989 33.0912 603.742 38.9125 603.847 42.7536C603.971 47.2374 601.989 54.0882 601.989 54.0882C601.989 54.0882 606.304 54.3076 607.563 52.4159C608.227 51.4198 608.307 49.4429 608.307 49.4429C608.307 49.4429 609.855 49.9849 610.537 49.4429C611.184 48.9279 611.094 47.3989 611.094 47.3989V40.5238C611.094 40.5238 611.46 38.3523 610.537 37.7366C609.812 37.2536 608.307 37.7366 608.307 37.7366V34.9494C608.307 34.9494 608.591 27.8187 607.563 23.4289C606.335 18.177 600.688 11.9084 600.688 11.9084C600.688 11.9084 600.706 10.1015 599.945 9.67866C596.6 7.82051 596.846 7.3447 591.955 5.21691C587.065 3.08912 583.358 2.27076 576.904 2.06027C571.232 1.87527 567.985 2.06035 562.782 3.40942C557.579 4.7585 554.421 6.51732 550.147 9.67866C549.447 10.1965 550.147 11.9084 550.147 11.9084C550.147 11.9084 543.24 18.0599 541.971 23.4289C540.933 27.8216 541.971 34.9494 541.971 34.9494V37.7366C541.971 37.7366 540.615 37.3313 539.927 37.7366C539.114 38.2155 538.998 39.9664 538.998 39.9664V47.3989C538.998 47.3989 539.176 48.9907 539.927 49.4429C540.611 49.8546 541.971 49.4429 541.971 49.4429C541.971 49.4429 541.918 52.0312 542.9 53.1592C544.256 54.7155 548.103 54.0882 548.103 54.0882C548.103 54.0882 546.121 47.2374 546.245 42.7536Z" stroke="#1DB954" stroke-width="3"/>
</svg>
