<svg width="87" height="86" viewBox="0 0 87 86" fill="none" xmlns="http://www.w3.org/2000/svg">
<rect x="8.5" y="1.5" width="77" height="76" rx="6.5" stroke="#1DB954" stroke-width="3"/>
<path d="M12.5 2C12.5 2 2.05109 8.44737 2.05109 12C2.05109 15.5526 2.05109 74.4071 2.05109 74.4071C2.05109 74.4071 1.51616 80.2768 3.90815 82.4351C5.97434 84.2995 10.8722 83.979 10.8722 83.979C10.8722 83.979 69.8092 83.979 73 83.979C76.1908 83.979 84.5 74.4071 84.5 74.4071" stroke="#1DB954" stroke-width="3"/>
<path d="M10 76L4 82" stroke="#1DB954" stroke-width="3"/>
<path d="M34.027 54V26H47.707C51.227 26 53.867 26.6667 55.627 28C57.4137 29.3333 58.307 31.0933 58.307 33.28C58.307 34.7467 57.947 36.0267 57.227 37.12C56.507 38.1867 55.5204 39.0133 54.267 39.6C53.0137 40.1867 51.5737 40.48 49.947 40.48L50.707 38.84C52.467 38.84 54.027 39.1333 55.387 39.72C56.747 40.28 57.8004 41.12 58.547 42.24C59.3204 43.36 59.707 44.7333 59.707 46.36C59.707 48.76 58.7604 50.64 56.867 52C54.9737 53.3333 52.187 54 48.507 54H34.027ZM40.467 49.12H48.027C49.707 49.12 50.9737 48.8533 51.827 48.32C52.707 47.76 53.147 46.88 53.147 45.68C53.147 44.5067 52.707 43.64 51.827 43.08C50.9737 42.4933 49.707 42.2 48.027 42.2H39.987V37.48H46.907C48.4804 37.48 49.6804 37.2133 50.507 36.68C51.3604 36.12 51.787 35.28 51.787 34.16C51.787 33.0667 51.3604 32.2533 50.507 31.72C49.6804 31.16 48.4804 30.88 46.907 30.88H40.467V49.12Z" fill="#1DB954"/>
</svg>
