<svg width="80" height="79" viewBox="0 0 80 79" fill="none" xmlns="http://www.w3.org/2000/svg">
<path fill-rule="evenodd" clip-rule="evenodd" d="M8 0C3.58172 0 0 3.58172 0 8V71C0 75.4183 3.58172 79 8 79H72C76.4183 79 80 75.4183 80 71V8C80 3.58172 76.4183 0 72 0H8ZM27.027 26V54H41.507C45.187 54 47.9737 53.3333 49.867 52C51.7604 50.64 52.707 48.76 52.707 46.36C52.707 44.7333 52.3204 43.36 51.547 42.24C50.8004 41.12 49.747 40.28 48.387 39.72C48.1371 39.6122 47.8804 39.5143 47.617 39.4263C48.7054 38.8541 49.5754 38.0853 50.227 37.12C50.947 36.0267 51.307 34.7467 51.307 33.28C51.307 31.0933 50.4137 29.3333 48.627 28C46.867 26.6667 44.227 26 40.707 26H27.027ZM41.027 49.12H33.467V42.2H41.027C42.707 42.2 43.9737 42.4933 44.827 43.08C45.707 43.64 46.147 44.5067 46.147 45.68C46.147 46.88 45.707 47.76 44.827 48.32C43.9737 48.8533 42.707 49.12 41.027 49.12ZM33.467 37.48V30.88H39.907C41.4804 30.88 42.6804 31.16 43.507 31.72C44.3604 32.2533 44.787 33.0667 44.787 34.16C44.787 35.28 44.3604 36.12 43.507 36.68C42.6804 37.2133 41.4804 37.48 39.907 37.48H33.467Z" fill="#1DB954"/>
</svg>
