<svg width="1358" height="650" viewBox="0 0 1358 650" fill="none" xmlns="http://www.w3.org/2000/svg">
<g clip-path="url(#clip0_427_107)">
<rect width="1358" height="650" fill="#111111"/>
<path fill-rule="evenodd" clip-rule="evenodd" d="M1132 -50.5V24.5H1212V95H1294.5V177.5H1413.5L1427.5 413.5L1294.5 396.5L1212 301V248H1132L999.5 24.5L1132 -50.5ZM999.5 640H1140V710L1463.5 726L1294.5 569.5L1212 558.5V468L943 452.5L999.5 640ZM212.5 20V-27.5L57.5 -12L76.5 95.5H135.5V163L275.5 231.5L374 75.5L303.5 20H212.5ZM59 482H-20.5V252H31L136.5 355V405.5L327 392.5L416 690L218.5 685L213 637L136.5 632V559.5H59V482Z" fill="#6228BB"/>
<circle cx="55.5" cy="324.5" r="84.5" fill="#F5FB55"/>
<circle cx="1302.5" cy="324.5" r="84.5" fill="#F5FB55"/>
<path d="M673.427 -317L736.78 -154.926L840.476 -295.295L859.167 -122.56L996.141 -231.658L968.897 -60.0353L1129.81 -130.427L1058.49 28.3887L1232.38 1.5L1121.84 136.685L1296.86 155.132L1154.64 257.475L1318.85 320L1154.64 382.525L1296.86 484.868L1121.84 503.315L1232.38 638.5L1058.49 611.611L1129.81 770.427L968.897 700.035L996.141 871.658L859.167 762.56L840.476 935.295L736.78 794.926L673.427 957L610.075 794.926L506.379 935.295L487.688 762.56L350.714 871.658L377.958 700.035L217.041 770.427L288.364 611.611L114.471 638.5L225.012 503.315L49.9924 484.868L192.218 382.525L28 320L192.218 257.475L49.9924 155.132L225.012 136.685L114.471 1.5L288.364 28.3887L217.041 -130.427L377.958 -60.0353L350.714 -231.658L487.688 -122.56L506.379 -295.295L610.075 -154.926L673.427 -317Z" fill="#F08F2C"/>
<circle cx="55.5" cy="13.5" r="84.5" fill="#F5FB55"/>
<circle cx="55.5" cy="635.5" r="84.5" fill="#F5FB55"/>
<circle cx="1302.5" cy="13.5" r="84.5" fill="#F5FB55"/>
<circle cx="1302.5" cy="635.5" r="84.5" fill="#F5FB55"/>
</g>
<defs>
<clipPath id="clip0_427_107">
<rect width="1358" height="650" fill="white"/>
</clipPath>
</defs>
</svg>
