<svg width="87" height="86" viewBox="0 0 87 86" fill="none" xmlns="http://www.w3.org/2000/svg">
<rect x="8.5" y="1.5" width="77" height="76" rx="6.5" stroke="#1DB954" stroke-width="3"/>
<path d="M12.5 2C12.5 2 2.05109 8.44737 2.05109 12C2.05109 15.5526 2.05109 74.4071 2.05109 74.4071C2.05109 74.4071 1.51616 80.2768 3.90815 82.4351C5.97434 84.2995 10.8722 83.979 10.8722 83.979C10.8722 83.979 69.8092 83.979 73 83.979C76.1908 83.979 84.5 74.4071 84.5 74.4071" stroke="#1DB954" stroke-width="3"/>
<path d="M10 76L4 82" stroke="#1DB954" stroke-width="3"/>
<path d="M34.613 54V26H46.733C49.2396 26 51.3996 26.4133 53.213 27.24C55.0263 28.04 56.4263 29.2 57.413 30.72C58.3996 32.24 58.893 34.0533 58.893 36.16C58.893 38.24 58.3996 40.04 57.413 41.56C56.4263 43.0533 55.0263 44.2 53.213 45C51.3996 45.8 49.2396 46.2 46.733 46.2H38.213L41.093 43.36V54H34.613ZM52.413 54L45.413 43.84H52.333L59.413 54H52.413ZM41.093 44.08L38.213 41.04H46.373C48.373 41.04 49.8663 40.6133 50.853 39.76C51.8396 38.88 52.333 37.68 52.333 36.16C52.333 34.6133 51.8396 33.4133 50.853 32.56C49.8663 31.7067 48.373 31.28 46.373 31.28H38.213L41.093 28.2V44.08Z" fill="#1DB954"/>
</svg>
