<svg width="80" height="79" viewBox="0 0 80 79" fill="none" xmlns="http://www.w3.org/2000/svg">
<path fill-rule="evenodd" clip-rule="evenodd" d="M8 0C3.58172 0 0 3.58172 0 8V71C0 75.4183 3.58172 79 8 79H72C76.4183 79 80 75.4183 80 71V8C80 3.58172 76.4183 0 72 0H8ZM27.613 26V54H34.093V46.2H39.733C39.8351 46.2 39.9366 46.1993 40.0376 46.198L45.413 54H52.413L46.1581 45.0241C46.1764 45.0161 46.1947 45.0081 46.213 45C48.0263 44.2 49.4263 43.0533 50.413 41.56C51.3996 40.04 51.893 38.24 51.893 36.16C51.893 34.0533 51.3996 32.24 50.413 30.72C49.4263 29.2 48.0263 28.04 46.213 27.24C44.3996 26.4133 42.2396 26 39.733 26H27.613ZM34.093 41.04H39.373C41.373 41.04 42.8663 40.6133 43.853 39.76C44.8396 38.88 45.333 37.68 45.333 36.16C45.333 34.6133 44.8396 33.4133 43.853 32.56C42.8663 31.7067 41.373 31.28 39.373 31.28H34.093V41.04Z" fill="#1DB954"/>
</svg>
