<svg width="60" height="60" viewBox="0 0 60 60" fill="none" xmlns="http://www.w3.org/2000/svg">
<path fill-rule="evenodd" clip-rule="evenodd" d="M47.745 26.5957C38.076 20.8537 22.125 20.325 12.891 23.127C11.409 23.574 9.84299 22.7399 9.39299 21.2549C8.94299 19.7729 9.77999 18.2068 11.262 17.7568C21.861 14.5378 39.477 15.1586 50.61 21.7676C51.942 22.5596 52.38 24.2823 51.588 25.6143C50.802 26.9463 49.074 27.3877 47.745 26.5957ZM47.43 35.1006C46.752 36.2016 45.312 36.5461 44.211 35.8711C36.15 30.9151 23.856 29.481 14.319 32.376C13.08 32.748 11.775 32.0519 11.4 30.8159C11.028 29.5799 11.724 28.2744 12.96 27.8994C23.853 24.5934 37.398 26.1957 46.659 31.8867C47.76 32.5617 48.105 34.0026 47.43 35.1006ZM43.758 43.2686C43.218 44.1506 42.069 44.4296 41.187 43.8896C34.143 39.5846 25.275 38.613 14.832 40.998C13.827 41.229 12.822 40.5983 12.594 39.5903C12.363 38.5853 12.99 37.5845 14.001 37.3535C25.428 34.7405 35.229 35.8648 43.137 40.6978C44.019 41.2378 44.298 42.3866 43.758 43.2686ZM30 0C13.431 0 0 13.431 0 30C0 46.569 13.431 60 30 60C46.569 60 60 46.569 60 30C60 13.434 46.569 0 30 0Z" fill="white"/>
</svg>
