<svg width="219" height="219" viewBox="0 0 219 219" fill="none" xmlns="http://www.w3.org/2000/svg">
<circle cx="109.5" cy="109.5" r="109.5" fill="#050505"/>
<path d="M103.313 184V166.477C86.1402 164.724 69.1425 158.591 56 149.129L71.771 125.822C82.986 133.708 93.5 138.439 104.364 140.192V119.164C76.1519 112.68 61.7827 103.042 61.7827 81.3131V80.9626C61.7827 60.285 76.8528 45.9159 103.664 43.9883V34H121.888V44.514C136.257 46.0911 148.348 50.9977 158.862 58.1822L144.493 81.6635C137.308 76.5818 128.897 73.0771 121.012 71.1495V91.4766C148.874 97.9603 162.893 107.949 162.893 129.678V130.028C162.893 151.407 146.421 164.549 121.537 166.827V184H103.313ZM104.54 88.4977V69.5724C95.9533 70.2734 92.6238 73.778 92.6238 78.3341V78.6846C92.6238 83.2406 95.0771 85.8692 104.54 88.4977ZM120.836 141.243C128.897 140.367 132.577 137.388 132.577 132.306V131.956C132.577 127.224 129.949 124.596 120.836 121.967V141.243Z" fill="#1FD662"/>
</svg>
