<svg width="87" height="86" viewBox="0 0 87 86" fill="none" xmlns="http://www.w3.org/2000/svg">
<path fill-rule="evenodd" clip-rule="evenodd" d="M79 3H15C14.3615 3 13.7509 3.1197 13.1895 3.33787L13.1807 3.34334C13.1079 3.38913 12.9995 3.45765 12.8608 3.54662C12.5832 3.72463 12.1846 3.98412 11.7055 4.30693C11.6217 4.36336 11.5356 4.42167 11.4473 4.48177C10.5526 5.38519 10 6.62807 10 8V71C10 73.7614 12.2386 76 15 76H79C80.05 76 81.0244 75.6763 81.8289 75.1233C81.9048 75.0418 81.9785 74.9622 82.0499 74.8849C82.4577 74.4435 82.7888 74.0761 83.0173 73.8199C83.1315 73.6919 83.2199 73.5917 83.2794 73.5241L83.3463 73.4477L83.3627 73.429L83.3665 73.4246L83.3672 73.4238L83.3673 73.4236L83.3721 73.4278C83.7721 72.7089 84 71.8811 84 71V8C84 5.23858 81.7614 3 79 3ZM15 0C12.892 0 10.9745 0.815304 9.54546 2.14778C8.61869 2.78348 7.48543 3.59373 6.34785 4.48905C5.01241 5.54009 3.62711 6.74247 2.56173 7.9432C2.0289 8.54372 1.54497 9.17831 1.18763 9.82403C0.837465 10.4568 0.551092 11.2034 0.551092 12V12.0214V12.0442V12.0681V12.0933V12.1198V12.1475V12.1764V12.2066V12.238V12.2706V12.3044V12.3395V12.3757V12.4131V12.4518V12.4916V12.5326V12.5748V12.6181V12.6627V12.7084V12.7552V12.8032V12.8524V12.9027V12.9541V13.0067V13.0604V13.1152V13.1711V13.2282V13.2863V13.3456V13.4059V13.4674V13.5299V13.5935V13.6582V13.724V13.7908V13.8587V13.9277V13.9977V14.0687V14.1408V14.2139V14.2881V14.3633V14.4395V14.5167V14.5949V14.6742V14.7544V14.8356V14.9178V15.001V15.0852V15.1704V15.2565V15.3436V15.4317V15.5207V15.6106V15.7015V15.7934V15.8862V15.9799V16.0745V16.17V16.2665V16.3639V16.4622V16.5613V16.6614V16.7623V16.8642V16.9669V17.0705V17.1749V17.2802V17.3864V17.4934V17.6013V17.71V17.8196V17.93V18.0412V18.1532V18.2661V18.3797V18.4942V18.6095V18.7255V18.8424V18.96V19.0785V19.1977V19.3176V19.4384V19.5599V19.6821V19.8051V19.9289V20.0534V20.1786V20.3045V20.4312V20.5586V20.6867V20.8156V20.9451V21.0753V21.2062V21.3378V21.4701V21.6031V21.7368V21.8711V22.006V22.1417V22.278V22.4149V22.5525V22.6907V22.8296V22.969V23.1091V23.2499V23.3912V23.5331V23.6757V23.8188V23.9626V24.1069V24.2518V24.3973V24.5433V24.6899V24.8371V24.9848V25.1331V25.282V25.4313V25.5812V25.7317V25.8826V26.0341V26.1861V26.3386V26.4917V26.6452V26.7992V26.9537V27.1087V27.2642V27.4201V27.5765V27.7334V27.8907V28.0485V28.2068V28.3654V28.5246V28.6841V28.8441V29.0045V29.1653V29.3266V29.4882V29.6503V29.8127V29.9756V30.1388V30.3024V30.4664V30.6308V30.7955V30.9606V31.1261V31.2919V31.458V31.6245V31.7914V31.9585V32.126V32.2938V32.462V32.6304V32.7992V32.9682V33.1376V33.3072V33.4771V33.6473V33.8178V33.9885V34.1596V34.3308V34.5024V34.6741V34.8462V35.0184V35.1909V35.3637V35.5366V35.7098V35.8832V36.0568V36.2306V36.4046V36.5788V36.7532V36.9277V37.1025V37.2774V37.4525V37.6278V37.8032V37.9787V38.1545V38.3303V38.5063V38.6824V38.8587V39.0351V39.2116V39.3882V39.5649V39.7417V39.9186V40.0956V40.2727V40.4499V40.6271V40.8045V40.9819V41.1593V41.3368V41.5144V41.692V41.8696V42.0473V42.225V42.4028V42.5805V42.7583V42.9361V43.1139V43.2917V43.4694V43.6472V43.825V44.0027V44.1804V44.3581V44.5358V44.7134V44.8909V45.0684V45.2459V45.4233V45.6006V45.7779V45.9551V46.1322V46.3092V46.4861V46.6629V46.8396V47.0163V47.1928V47.3691V47.5454V47.7215V47.8975V48.0734V48.2491V48.4247V48.6001V48.7754V48.9505V49.1254V49.3002V49.4748V49.6492V49.8234V49.9974V50.1712V50.3448V50.5182V50.6914V50.8644V51.0371V51.2096V51.3819V51.554V51.7258V51.8973V52.0686V52.2396V52.4104V52.5809V52.7511V52.9211V53.0907V53.2601V53.4292V53.5979V53.7664V53.9345V54.1024V54.2699V54.4371V54.6039V54.7704V54.9366V55.1024V55.2679V55.433V55.5978V55.7622V55.9262V56.0899V56.2531V56.416V56.5785V56.7405V56.9022V57.0635V57.2243V57.3848V57.5448V57.7044V57.8635V58.0223V58.1805V58.3383V58.4957V58.6526V58.8091V58.965V59.1205V59.2756V59.4301V59.5841V59.7377V59.8907V60.0433V60.1953V60.3468V60.4978V60.6483V60.7983V60.9477V61.0965V61.2449V61.3926V61.5399V61.6865V61.8326V61.9781V62.1231V62.2674V62.4112V62.5544V62.6969V62.8389V62.9803V63.1211V63.2612V63.4007V63.5396V63.6779V63.8155V63.9525V64.0888V64.2245V64.3595V64.4939V64.6276V64.7606V64.8929V65.0246V65.1555V65.2858V65.4154V65.5443V65.6724V65.7999V65.9266V66.0526V66.1779V66.3024V66.4262V66.5492V66.6716V66.7931V66.9139V67.0339V67.1532V67.2716V67.3893V67.5062V67.6224V67.7377V67.8522V67.9659V68.0788V68.1909V68.3022V68.4126V68.5222V68.631V68.7389V68.846V68.9522V69.0576V69.1621V69.2658V69.3686V69.4704V69.5715V69.6716V69.7708V69.8691V69.9666V70.0631V70.1587V70.2534V70.3472V70.44V70.5319V70.6229V70.7129V70.802V70.8901V70.9772V71.0634V71.1487V71.2329V71.3162V71.3985V71.4798V71.5601V71.6394V71.7177V71.7949V71.8712V71.9465V72.0207V72.0939V72.166V72.2372V72.3072V72.3763V72.4442V72.5111V72.577V72.6417V72.7054V72.768V72.8295V72.89V72.9493V73.0075V73.0646V73.1207V73.1755V73.2293V73.282V73.3335V73.3838V73.4331V73.4811V73.5281V73.5738V73.6184V73.6619V73.7041V73.7452V73.7851V73.8238V73.8614V73.8977V73.9328V73.9667V73.9994V74.0309V74.0611V74.0901V74.1179V74.1444V74.1697V74.1938V74.2166V74.2381V74.2584V74.2774V74.2951V74.3115V74.3267V74.3406V74.3459L0.550051 74.3589C0.546137 74.41 0.541 74.4822 0.53551 74.573C0.52454 74.7545 0.5121 75.0116 0.505242 75.3251C0.491589 75.9493 0.499715 76.8114 0.589367 77.7538C0.67842 78.6899 0.851738 79.7479 1.18665 80.747C1.51763 81.7343 2.04226 82.7719 2.90329 83.5488C4.32351 84.8303 6.50318 85.2428 8.01109 85.3983C8.81786 85.4815 9.549 85.5009 10.0774 85.4999C10.3427 85.4994 10.5599 85.4938 10.7133 85.4881C10.7901 85.4852 10.8512 85.4824 10.8946 85.4801L10.9149 85.479H10.9262H10.9387H10.9526H10.9678H10.9843H11.002H11.021H11.0413H11.0629H11.0857H11.1098H11.1351H11.1617H11.1895H11.2186H11.2488H11.2804H11.3131H11.347H11.3822H11.4186H11.4561H11.4949H11.5348H11.576H11.6183H11.6618H11.7064H11.7522H11.7992H11.8474H11.8966H11.9471H11.9986H12.0513H12.1052H12.1601H12.2162H12.2734H12.3317H12.3911H12.4515H12.5131H12.5758H12.6396H12.7044H12.7703H12.8373H12.9053H12.9744H13.0445H13.1157H13.188H13.2612H13.3355H13.4108H13.4872H13.5645H13.6429H13.7223H13.8027H13.884H13.9664H14.0497H14.1341H14.2194H14.3056H14.3929H14.4811H14.5702H14.6603H14.7514H14.8433H14.9362H15.0301H15.1249H15.2205H15.3171H15.4146H15.513H15.6124H15.7126H15.8136H15.9156H16.0185H16.1222H16.2268H16.3322H16.4385H16.5457H16.6537H16.7625H16.8722H16.9827H17.094H17.2062H17.3192H17.433H17.5475H17.6629H17.7791H17.8961H18.0139H18.1324H18.2517H18.3718H18.4926H18.6143H18.7366H18.8597H18.9836H19.1082H19.2335H19.3596H19.4864H19.6138H19.7421H19.871H20.0006H20.1309H20.2619H20.3936H20.526H20.6591H20.7928H20.9272H21.0623H21.198H21.3344H21.4714H21.6091H21.7474H21.8863H22.0258H22.166H22.3068H22.4482H22.5902H22.7328H22.876H23.0198H23.1642H23.3091H23.4547H23.6008H23.7474H23.8947H24.0425H24.1908H24.3397H24.4891H24.639H24.7895H24.9405H25.092H25.244H25.3966H25.5496H25.7032H25.8572H26.0117H26.1667H26.3222H26.4781H26.6346H26.7914H26.9488H27.1066H27.2648H27.4235H27.5826H27.7422H27.9021H28.0625H28.2233H28.3845H28.5462H28.7082H28.8706H29.0334H29.1966H29.3602H29.5242H29.6885H29.8532H30.0182H30.1836H30.3494H30.5155H30.6819H30.8487H31.0157H31.1832H31.3509H31.519H31.6873H31.856H32.0249H32.1942H32.3637H32.5336H32.7036H32.874H33.0447H33.2156H33.3867H33.5581H33.7298H33.9017H34.0738H34.2462H34.4188H34.5916H34.7646H34.9379H35.1113H35.285H35.4588H35.6328H35.8071H35.9815H36.156H36.3308H36.5057H36.6807H36.856H37.0313H37.2069H37.3825H37.5583H37.7342H37.9103H38.0864H38.2627H38.4391H38.6156H38.7921H38.9688H39.1456H39.3224H39.4993H39.6763H39.8534H40.0305H40.2077H40.3849H40.5622H40.7395H40.9169H41.0943H41.2717H41.4491H41.6266H41.8041H41.9815H42.159H42.3365H42.5139H42.6914H42.8688H43.0462H43.2236H43.4009H43.5782H43.7554H43.9326H44.1098H44.2868H44.4638H44.6408H44.8176H44.9944H45.1711H45.3477H45.5242H45.7007H45.877H46.0531H46.2292H46.4052H46.581H46.7567H46.9322H47.1076H47.2829H47.458H47.6329H47.8077H47.9823H48.1568H48.331H48.5051H48.679H48.8527H49.0262H49.1995H49.3726H49.5454H49.7181H49.8905H50.0627H50.2347H50.4064H50.5779H50.7491H50.92H51.0907H51.2612H51.4313H51.6012H51.7708H51.9402H52.1092H52.2779H52.4464H52.6145H52.7823H52.9498H53.117H53.2838H53.4503H53.6165H53.7824H53.9478H54.113H54.2778H54.4422H54.6062H54.7699H54.9332H55.0961H55.2586H55.4207H55.5824H55.7438H55.9047H56.0652H56.2252H56.3849H56.5441H56.7029H56.8612H57.0191H57.1766H57.3336H57.4901H57.6462H57.8018H57.9569H58.1115H58.2657H58.4194H58.5725H58.7252H58.8773H59.029H59.1801H59.3307H59.4808H59.6303H59.7793H59.9278H60.0757H60.2231H60.3699H60.5161H60.6618H60.8069H60.9514H61.0954H61.2387H61.3815H61.5236H61.6652H61.8061H61.9464H62.0861H62.2252H62.3637H62.5015H62.6387H62.7752H62.9111H63.0463H63.1809H63.3148H63.448H63.5805H63.7124H63.8436H63.9741H64.1039H64.233H64.3614H64.489H64.616H64.7422H64.8677H64.9925H65.1165H65.2398H65.3624H65.4842H65.6052H65.7255H65.845H65.9637H66.0817H66.1988H66.3152H66.4308H66.5456H66.6596H66.7728H66.8851H66.9966H67.1074H67.2172H67.3263H67.4345H67.5419H67.6484H67.754H67.8588H67.9628H68.0658H68.168H68.2693H68.3697H68.4693H68.5679H68.6656H68.7624H68.8583H68.9533H69.0474H69.1405H69.2327H69.324H69.4143H69.5037H69.5922H69.6796H69.7661H69.8517H69.9362H70.0198H70.1024H70.184H70.2647H70.3443H70.4229H70.5005H70.5771H70.6527H70.7272H70.8007H70.8732H70.9447H71.0151H71.0844H71.1527H71.2199H71.2861H71.3512H71.4152H71.4782H71.54H71.6008H71.6604H71.719H71.7765H71.8328H71.888H71.9421H71.9951H72.047H72.0977H72.1472H72.1956H72.2429H72.289H72.334H72.3777H72.4203H72.4618H72.502H72.541H72.5789H72.6156H72.651H72.6853H72.7183H72.7501H72.7807H72.81H72.8382H72.865H72.8907H72.9151H72.9382H72.9601H72.9807H73C73.7358 85.479 74.4587 85.2153 75.0718 84.9139C75.7109 84.5999 76.3747 84.172 77.0281 83.6944C78.3362 82.7382 79.7305 81.4878 80.9889 80.2716C82.0504 79.2458 83.0373 78.2229 83.8242 77.3824C85.7535 75.9218 87 73.6064 87 71V8C87 3.58172 83.4183 0 79 0H15ZM4.80574 9.93427C5.41344 9.24938 6.17514 8.53294 7.0018 7.82861C7.0006 7.8856 7 7.94273 7 8V71C7 72.6671 7.5099 74.215 8.38225 75.4964L4.04479 79.8339C4.04019 79.8205 4.03562 79.807 4.03108 79.7934C3.79354 79.0849 3.6521 78.2708 3.57588 77.4697C3.50027 76.6748 3.49263 75.9346 3.50452 75.3907C3.51044 75.1202 3.52111 74.9019 3.53005 74.754C3.53451 74.6801 3.53853 74.624 3.54129 74.5881L3.54436 74.5496L3.5449 74.5432L3.54495 74.5426L3.54499 74.5423L3.54499 74.5422L3.54504 74.5417L3.55109 74.4753V74.4071H2.05109C3.55109 74.4071 3.55109 74.4068 3.55109 74.4064V74.4044V74.401V74.3963V74.3903V74.383V74.3743V74.3644V74.3531V74.3406V74.3267V74.3115V74.2951V74.2774V74.2584V74.2381V74.2166V74.1938V74.1697V74.1444V74.1179V74.0901V74.0611V74.0309V73.9994V73.9667V73.9328V73.8977V73.8614V73.8238V73.7851V73.7452V73.7041V73.6619V73.6184V73.5738V73.5281V73.4811V73.4331V73.3838V73.3335V73.282V73.2293V73.1755V73.1207V73.0646V73.0075V72.9493V72.89V72.8295V72.768V72.7054V72.6417V72.577V72.5111V72.4442V72.3763V72.3072V72.2372V72.166V72.0939V72.0207V71.9465V71.8712V71.7949V71.7177V71.6394V71.5601V71.4798V71.3985V71.3162V71.2329V71.1487V71.0634V70.9772V70.8901V70.802V70.7129V70.6229V70.5319V70.44V70.3472V70.2534V70.1587V70.0631V69.9666V69.8691V69.7708V69.6716V69.5715V69.4704V69.3686V69.2658V69.1621V69.0576V68.9522V68.846V68.7389V68.631V68.5222V68.4126V68.3022V68.1909V68.0788V67.9659V67.8522V67.7377V67.6224V67.5062V67.3893V67.2716V67.1532V67.0339V66.9139V66.7931V66.6716V66.5492V66.4262V66.3024V66.1779V66.0526V65.9266V65.7999V65.6724V65.5443V65.4154V65.2858V65.1555V65.0246V64.8929V64.7606V64.6276V64.4939V64.3595V64.2245V64.0888V63.9525V63.8155V63.6779V63.5396V63.4007V63.2612V63.1211V62.9803V62.8389V62.6969V62.5544V62.4112V62.2674V62.1231V61.9781V61.8326V61.6865V61.5399V61.3926V61.2449V61.0965V60.9477V60.7983V60.6483V60.4978V60.3468V60.1953V60.0433V59.8907V59.7377V59.5841V59.4301V59.2756V59.1205V58.965V58.8091V58.6526V58.4957V58.3383V58.1805V58.0223V57.8635V57.7044V57.5448V57.3848V57.2243V57.0635V56.9022V56.7405V56.5785V56.416V56.2531V56.0899V55.9262V55.7622V55.5978V55.433V55.2679V55.1024V54.9366V54.7704V54.6039V54.4371V54.2699V54.1024V53.9345V53.7664V53.5979V53.4292V53.2601V53.0907V52.9211V52.7511V52.5809V52.4104V52.2396V52.0686V51.8973V51.7258V51.554V51.3819V51.2096V51.0371V50.8644V50.6914V50.5182V50.3448V50.1712V49.9974V49.8234V49.6492V49.4748V49.3002V49.1254V48.9505V48.7754V48.6001V48.4247V48.2491V48.0734V47.8975V47.7215V47.5454V47.3691V47.1928V47.0163V46.8396V46.6629V46.4861V46.3092V46.1322V45.9551V45.7779V45.6006V45.4233V45.2459V45.0684V44.8909V44.7134V44.5358V44.3581V44.1804V44.0027V43.825V43.6472V43.4694V43.2917V43.1139V42.9361V42.7583V42.5805V42.4028V42.225V42.0473V41.8696V41.692V41.5144V41.3368V41.1593V40.9819V40.8045V40.6271V40.4499V40.2727V40.0956V39.9186V39.7417V39.5649V39.3882V39.2116V39.0351V38.8587V38.6824V38.5063V38.3303V38.1545V37.9787V37.8032V37.6278V37.4525V37.2774V37.1025V36.9277V36.7532V36.5788V36.4046V36.2306V36.0568V35.8832V35.7098V35.5366V35.3637V35.1909V35.0184V34.8462V34.6741V34.5024V34.3308V34.1596V33.9885V33.8178V33.6473V33.4771V33.3072V33.1376V32.9682V32.7992V32.6304V32.462V32.2938V32.126V31.9585V31.7914V31.6245V31.458V31.2919V31.1261V30.9606V30.7955V30.6308V30.4664V30.3024V30.1388V29.9756V29.8127V29.6503V29.4882V29.3266V29.1653V29.0045V28.8441V28.6841V28.5246V28.3654V28.2068V28.0485V27.8907V27.7334V27.5765V27.4201V27.2642V27.1087V26.9537V26.7992V26.6452V26.4917V26.3386V26.1861V26.0341V25.8826V25.7317V25.5812V25.4313V25.282V25.1331V24.9848V24.8371V24.6899V24.5433V24.3973V24.2518V24.1069V23.9626V23.8188V23.6757V23.5331V23.3912V23.2499V23.1091V22.969V22.8296V22.6907V22.5525V22.4149V22.278V22.1417V22.006V21.8711V21.7368V21.6031V21.4701V21.3378V21.2062V21.0753V20.9451V20.8156V20.6867V20.5586V20.4312V20.3045V20.1786V20.0534V19.9289V19.8051V19.6821V19.5599V19.4384V19.3176V19.1977V19.0785V18.96V18.8424V18.7255V18.6095V18.4942V18.3797V18.2661V18.1532V18.0412V17.93V17.8196V17.71V17.6013V17.4934V17.3864V17.2802V17.1749V17.0705V16.9669V16.8642V16.7623V16.6614V16.5613V16.4622V16.3639V16.2665V16.17V16.0745V15.9799V15.8862V15.7934V15.7015V15.6106V15.5207V15.4317V15.3436V15.2565V15.1704V15.0852V15.001V14.9178V14.8356V14.7544V14.6742V14.5949V14.5167V14.4395V14.3633V14.2881V14.2139V14.1408V14.0687V13.9977V13.9277V13.8587V13.7908V13.724V13.6582V13.5935V13.5299V13.4674V13.4059V13.3456V13.2863V13.2282V13.1711V13.1152V13.0604V13.0067V12.9541V12.9027V12.8524V12.8032V12.7552V12.7084V12.6627V12.6181V12.5748V12.5326V12.4916V12.4518V12.4131V12.3757V12.3395V12.3044V12.2706V12.238V12.2066V12.1764V12.1475V12.1198V12.0933V12.0681V12.0442V12.0214V12C3.55109 11.9084 3.59125 11.6764 3.81251 11.2766C4.0266 10.8897 4.35899 10.4378 4.80574 9.93427ZM6.14507 81.9762C6.76809 82.1866 7.52017 82.3317 8.31886 82.4141C8.99482 82.4838 9.61726 82.5008 10.0718 82.4999C10.2979 82.4995 10.4796 82.4947 10.602 82.4902C10.6632 82.4879 10.7094 82.4857 10.7387 82.4842L10.7699 82.4825L10.7742 82.4822L10.7748 82.4822L10.7752 82.4821L10.7755 82.4821L10.7757 82.4821L10.8231 82.479H10.8722V83.979C10.8722 82.479 10.8724 82.479 10.8728 82.479H10.8748H10.8782H10.8829H10.8889H10.8962H10.9049H10.9149H10.9262H10.9387H10.9526H10.9678H10.9843H11.002H11.021H11.0413H11.0629H11.0857H11.1098H11.1351H11.1617H11.1895H11.2186H11.2488H11.2804H11.3131H11.347H11.3822H11.4186H11.4561H11.4949H11.5348H11.576H11.6183H11.6618H11.7064H11.7522H11.7992H11.8474H11.8966H11.9471H11.9986H12.0513H12.1052H12.1601H12.2162H12.2734H12.3317H12.3911H12.4515H12.5131H12.5758H12.6396H12.7044H12.7703H12.8373H12.9053H12.9744H13.0445H13.1157H13.188H13.2612H13.3355H13.4108H13.4872H13.5645H13.6429H13.7223H13.8027H13.884H13.9664H14.0497H14.1341H14.2194H14.3056H14.3929H14.4811H14.5702H14.6603H14.7514H14.8433H14.9362H15.0301H15.1249H15.2205H15.3171H15.4146H15.513H15.6124H15.7126H15.8136H15.9156H16.0185H16.1222H16.2268H16.3322H16.4385H16.5457H16.6537H16.7625H16.8722H16.9827H17.094H17.2062H17.3192H17.433H17.5475H17.6629H17.7791H17.8961H18.0139H18.1324H18.2517H18.3718H18.4926H18.6143H18.7366H18.8597H18.9836H19.1082H19.2335H19.3596H19.4864H19.6138H19.7421H19.871H20.0006H20.1309H20.2619H20.3936H20.526H20.6591H20.7928H20.9272H21.0623H21.198H21.3344H21.4714H21.6091H21.7474H21.8863H22.0258H22.166H22.3068H22.4482H22.5902H22.7328H22.876H23.0198H23.1642H23.3091H23.4547H23.6008H23.7474H23.8947H24.0425H24.1908H24.3397H24.4891H24.639H24.7895H24.9405H25.092H25.244H25.3966H25.5496H25.7032H25.8572H26.0117H26.1667H26.3222H26.4781H26.6346H26.7914H26.9488H27.1066H27.2648H27.4235H27.5826H27.7422H27.9021H28.0625H28.2233H28.3845H28.5462H28.7082H28.8706H29.0334H29.1966H29.3602H29.5242H29.6885H29.8532H30.0182H30.1836H30.3494H30.5155H30.6819H30.8487H31.0157H31.1832H31.3509H31.519H31.6873H31.856H32.0249H32.1942H32.3637H32.5336H32.7036H32.874H33.0447H33.2156H33.3867H33.5581H33.7298H33.9017H34.0738H34.2462H34.4188H34.5916H34.7646H34.9379H35.1113H35.285H35.4588H35.6328H35.8071H35.9815H36.156H36.3308H36.5057H36.6807H36.856H37.0313H37.2069H37.3825H37.5583H37.7342H37.9103H38.0864H38.2627H38.4391H38.6156H38.7921H38.9688H39.1456H39.3224H39.4993H39.6763H39.8534H40.0305H40.2077H40.3849H40.5622H40.7395H40.9169H41.0943H41.2717H41.4491H41.6266H41.8041H41.9815H42.159H42.3365H42.5139H42.6914H42.8688H43.0462H43.2236H43.4009H43.5782H43.7554H43.9326H44.1098H44.2868H44.4638H44.6408H44.8176H44.9944H45.1711H45.3477H45.5242H45.7007H45.877H46.0531H46.2292H46.4052H46.581H46.7567H46.9322H47.1076H47.2829H47.458H47.6329H47.8077H47.9823H48.1568H48.331H48.5051H48.679H48.8527H49.0262H49.1995H49.3726H49.5454H49.7181H49.8905H50.0627H50.2347H50.4064H50.5779H50.7491H50.92H51.0907H51.2612H51.4313H51.6012H51.7708H51.9402H52.1092H52.2779H52.4464H52.6145H52.7823H52.9498H53.117H53.2838H53.4503H53.6165H53.7824H53.9478H54.113H54.2778H54.4422H54.6062H54.7699H54.9332H55.0961H55.2586H55.4207H55.5824H55.7438H55.9047H56.0652H56.2252H56.3849H56.5441H56.7029H56.8612H57.0191H57.1766H57.3336H57.4901H57.6462H57.8018H57.9569H58.1115H58.2657H58.4194H58.5725H58.7252H58.8773H59.029H59.1801H59.3307H59.4808H59.6303H59.7793H59.9278H60.0757H60.2231H60.3699H60.5161H60.6618H60.8069H60.9514H61.0954H61.2387H61.3815H61.5236H61.6652H61.8061H61.9464H62.0861H62.2252H62.3637H62.5015H62.6387H62.7752H62.9111H63.0463H63.1809H63.3148H63.448H63.5805H63.7124H63.8436H63.9741H64.1039H64.233H64.3614H64.489H64.616H64.7422H64.8677H64.9925H65.1165H65.2398H65.3624H65.4842H65.6052H65.7255H65.845H65.9637H66.0817H66.1988H66.3152H66.4308H66.5456H66.6596H66.7728H66.8851H66.9966H67.1074H67.2172H67.3263H67.4345H67.5419H67.6484H67.754H67.8588H67.9628H68.0658H68.168H68.2693H68.3697H68.4693H68.5679H68.6656H68.7624H68.8583H68.9533H69.0474H69.1405H69.2327H69.324H69.4143H69.5037H69.5922H69.6796H69.7661H69.8517H69.9362H70.0198H70.1024H70.184H70.2647H70.3443H70.4229H70.5005H70.5771H70.6527H70.7272H70.8007H70.8732H70.9447H71.0151H71.0844H71.1527H71.2199H71.2861H71.3512H71.4152H71.4782H71.54H71.6008H71.6604H71.719H71.7765H71.8328H71.888H71.9421H71.9951H72.047H72.0977H72.1472H72.1956H72.2429H72.289H72.334H72.3777H72.4203H72.4618H72.502H72.541H72.5789H72.6156H72.651H72.6853H72.7183H72.7501H72.7807H72.81H72.8382H72.865H72.8907H72.9151H72.9382H72.9601H72.9807H73C73.0619 82.479 73.2967 82.4436 73.7486 82.2215C74.1748 82.0121 74.6835 81.6922 75.2578 81.2724C76.1137 80.6468 77.0442 79.852 77.9673 79H15C13.3329 79 11.785 78.4901 10.5036 77.6178L6.14507 81.9762Z" fill="#1DB954"/>
<path d="M42.7567 54V31.28H33.7967V26H58.1967V31.28H49.2367V54H42.7567Z" fill="#1DB954"/>
</svg>
