<svg width="486" height="290" viewBox="0 0 486 290" fill="none" xmlns="http://www.w3.org/2000/svg">
<path fill-rule="evenodd" clip-rule="evenodd" d="M191.724 280.86C197.754 286.648 206.275 288.883 214.552 287.713C222.443 286.597 230.764 286 239.499 286C251.251 286 262.253 287.081 272.469 289.051C281.099 290.716 290.183 288.627 296.524 282.54C309.115 270.453 305.277 249.618 288.291 245.609C272.833 241.96 256.455 240 239.499 240C226.257 240 213.367 241.195 200.993 243.457C183.177 246.714 178.659 268.318 191.724 280.86Z" fill="#2B2B2B"/>
<path fill-rule="evenodd" clip-rule="evenodd" d="M127.438 219.15C134.551 225.978 145.107 227.563 154.316 224.038C179.078 214.56 207.708 209 239.498 209C274.274 209 305.267 215.653 331.553 226.81C340.924 230.788 351.912 229.37 359.256 222.32C370.434 211.59 368.369 193.167 354.228 186.834C320.344 171.66 281.197 163 239.498 163C201.194 163 165.044 170.307 133.148 183.259C118.436 189.233 115.983 208.154 127.438 219.15Z" fill="#2B2B2B"/>
<path fill-rule="evenodd" clip-rule="evenodd" d="M68.6658 162.732C76.3791 170.136 88.0899 171.254 97.5207 166.216C138.439 144.358 188.907 131 245.999 131C302.546 131 352.595 144.104 393.303 165.592C402.718 170.562 414.368 169.418 422.049 162.045C432.807 151.718 431.243 134.059 418.122 126.972C369.082 100.485 309.823 85 245.999 85C181.578 85 121.806 100.776 72.5003 127.72C59.4579 134.847 57.9437 152.439 68.6658 162.732Z" fill="#2B2B2B"/>
<path fill-rule="evenodd" clip-rule="evenodd" d="M7.68663 104.193C16.1572 112.325 29.3176 112.745 38.9042 105.965C90.7076 69.3302 160.033 46 239.999 46C322.685 46 393.994 70.9443 446.319 109.749C455.923 116.871 469.38 116.613 478.005 108.333C487.765 98.9642 487.47 83.1975 476.659 75.0646C414.777 28.5108 331.539 0 239.999 0C151.425 0 70.6246 26.6931 9.42134 70.5963C-1.74796 78.6085 -2.22976 94.6743 7.68663 104.193Z" fill="#2B2B2B"/>
</svg>
